<svg width="11" height="11" viewBox="0 0 11 11" fill="none" xmlns="http://www.w3.org/2000/svg">
<path d="M3.47041 9.27339L7.97662 5.71588C8.1161 5.60577 8.1161 5.3943 7.97662 5.28419L3.47041 1.72666C3.2901 1.58429 3.02502 1.71274 3.02502 1.9425V9.05754C3.02502 9.28731 3.2901 9.41576 3.47041 9.27339Z" fill="white"/>
<path fill-rule="evenodd" clip-rule="evenodd" d="M2.88745 1.94244C2.88745 1.5978 3.28505 1.40512 3.55556 1.61868L8.06174 5.1762C8.27093 5.34136 8.27093 5.65858 8.06174 5.82374L3.55556 9.38125C3.28505 9.59482 2.88745 9.40215 2.88745 9.0575V1.94244ZM3.38515 1.83452C3.29497 1.76334 3.16245 1.82756 3.16245 1.94244V9.0575C3.16245 9.17236 3.29497 9.2366 3.38515 9.1654L7.89135 5.60789C7.96109 5.55284 7.96109 5.4471 7.89135 5.39205L3.38515 1.83452Z" fill="white"/>
</svg>
