<svg xmlns="http://www.w3.org/2000/svg" width="63" height="11" viewBox="0 0 63 11">
  <defs>
    <style>
      .cls-1 {
        fill: #424242;
        fill-rule: evenodd;
      }
    </style>
  </defs>
  <path id="Shape_9_copy" data-name="Shape 9 copy" class="cls-1" d="M1845.99,874.469a0.431,0.431,0,0,1-.45.411h-1.42c-0.14.032-.29,0.064-0.44,0.1a0.412,0.412,0,0,0-.17.323v6.1c0,0.229.09,0.418-.16,0.418h-1.86a0.444,0.444,0,0,1-.46-0.418v-6.1a0.5,0.5,0,0,0-.02-0.124,0.391,0.391,0,0,0-.38-0.294H1839a0.437,0.437,0,0,1-.46-0.417V873.3a0.437,0.437,0,0,1,.46-0.417h6.54a0.523,0.523,0,0,1,.18.035,0.417,0.417,0,0,1,.27.382v1.171Zm-9.14,7.346h-1.56a0.434,0.434,0,0,1-.45-0.417v-1.55c0-.229-0.12-0.287-0.26-0.128l-0.18.168c-0.18.169-.37,0.337-0.58,0.506-0.08.066-.16,0.131-0.25,0.2h0c-0.07.057-.14,0.113-0.22,0.17-0.06.045-.12,0.087-0.18,0.131a4.92,4.92,0,0,1-3.03.922h-0.69a0.434,0.434,0,0,1-.45-0.417v-8.1a0.434,0.434,0,0,1,.45-0.417h1.62a0.434,0.434,0,0,1,.45.417v5.561c0,0.229.15,0.332,0.32,0.228a0.572,0.572,0,0,0,.28-0.112q0.24-.168.51-0.374a9.507,9.507,0,0,0,.83-0.692c0.28-.253.53-0.508,0.77-0.765a2.038,2.038,0,0,0,.14-0.164l0.18-.215c0.1-.124.2-0.247,0.29-0.368v-3.1a0.434,0.434,0,0,1,.45-0.417h1.56a0.437,0.437,0,0,1,.46.417v8.1A0.437,0.437,0,0,1,1836.85,881.815Zm-2.1-9.806a3.037,3.037,0,0,1-1.51.376,2.962,2.962,0,0,1-1.49-.376,1.841,1.841,0,0,1-.49-0.393c-0.41-.516.14-0.629,0.14-0.629h3.55a0.338,0.338,0,0,1,.36.494A1.31,1.31,0,0,1,1834.75,872.009Zm-7.45,9.809h-1.61a0.612,0.612,0,0,1-.66-0.41c0-.019-0.01-0.038-0.01-0.059-0.01-.042-0.02-0.094-0.03-0.15h-2.62v-2.015h2.1c-0.09-.275-0.17-0.547-0.25-0.786h0c-0.03-.1-0.05-0.189-0.08-0.272a0.245,0.245,0,0,0-.01-0.084s-0.01-.035-0.07-0.2q-0.015-.029-0.03-0.063c-0.07-.217-0.15-0.426-0.23-0.626l-0.01-.015c-0.14-.339-0.27-0.629-0.4-0.871s-0.2-.4-0.24-0.476c-0.23.447-.44,0.916-0.64,1.4l-0.09.214c-0.15.391-.29,1.1-0.42,1.494l-0.15.011h-2.62c0.14-.442.29-1.2,0.44-1.63,0.23-.631.48-1.251,0.75-1.855a15.2,15.2,0,0,1,1.19-2.262,0.757,0.757,0,0,1,.65-0.286H1824a0.921,0.921,0,0,1,.69.358s0.46,0.7.75,1.262,0.56,1.118.8,1.68c0.12,0.275.22,0.548,0.33,0.819q0.21,0.561.39,1.113c0.12,0.356.23,0.71,0.32,1.061l0.01,0.01h0.01v0.059q0.315,1.152.51,2.126C1827.82,881.511,1827.8,881.818,1827.3,881.818Zm-8.8-7.108-0.22-.027a4.422,4.422,0,0,0-.71-0.026,3.15,3.15,0,0,0-2.2.811,2.468,2.468,0,0,0-.7,1.889v0.049a2.483,2.483,0,0,0,.59,1.676,2.772,2.772,0,0,0,1.15.743,3.669,3.669,0,0,0,.64.171,4.23,4.23,0,0,0,.45.023h3.65v1.894h-2.55l-9.7.013h-0.33c-0.15,0-.32-0.016-0.43-0.023a4.135,4.135,0,0,1-2.79-1.076,4.8,4.8,0,0,1-1.39-2.782,0.97,0.97,0,0,1-.03-0.241,2.076,2.076,0,0,1-.02-0.242,2.86,2.86,0,0,1,0-.414,4.122,4.122,0,0,1,1.25-2.924,5.571,5.571,0,0,1,3.87-1.425,8.15,8.15,0,0,1,.96.017,7.672,7.672,0,0,1,.86.115l0.07,1.493a0.3,0.3,0,0,1-.36.334l-0.22-.027a4.667,4.667,0,0,0-.71-0.026,3.155,3.155,0,0,0-2.2.812,2.4,2.4,0,0,0-.7,1.735v0.2a2.49,2.49,0,0,0,.59,1.677,2.78,2.78,0,0,0,1.15.742,3.52,3.52,0,0,0,.64.124,4.485,4.485,0,0,0,.45.022l3.11-.006a4.585,4.585,0,0,1-.77-2.018,1.882,1.882,0,0,1-.03-0.242,2.024,2.024,0,0,1-.02-0.242v-0.16a4.143,4.143,0,0,1,1.25-3.177,5.566,5.566,0,0,1,3.87-1.425,8.108,8.108,0,0,1,.96.017,7.911,7.911,0,0,1,.86.115l0.07,1.493A0.3,0.3,0,0,1,1818.5,874.71Zm-17.07,6.113a6.113,6.113,0,0,1-7.24,0,4.222,4.222,0,0,1-1.46-3.474,6.588,6.588,0,0,1,.05-0.786,1.784,1.784,0,0,1,.04-0.228,3.888,3.888,0,0,1,1.37-2.473,6.118,6.118,0,0,1,7.24,0,4.115,4.115,0,0,1,1.47,3.24v0.247a6.267,6.267,0,0,1-.06.887A3.912,3.912,0,0,1,1801.43,880.823Zm-1.42-3.881a3.1,3.1,0,0,0-.49-1.448,2.238,2.238,0,0,0-3.42,0,3.109,3.109,0,0,0-.43,1.12,3.3,3.3,0,0,0-.07.554v0.181a3.359,3.359,0,0,0,.51,1.855,2.226,2.226,0,0,0,3.41,0,3.271,3.271,0,0,0,.48-1.315,4.694,4.694,0,0,0,.04-0.54A2.707,2.707,0,0,0,1800.01,876.942Zm-12.41,2.852-0.13,0a0.332,0.332,0,0,1-.32-0.329v-1.451a0.223,0.223,0,0,1,.2-0.237h0.01l0.03,0h0a1.789,1.789,0,0,0,.85-0.331,1.31,1.31,0,0,0,.46-1.091c0-.056-0.01-0.15-0.02-0.283a1.027,1.027,0,0,0-.06-0.226,0.974,0.974,0,0,0-.09-0.2,0.843,0.843,0,0,0-.1-0.139l-0.03-.032a0.555,0.555,0,0,0-.08-0.091l-0.01-.015-0.01,0a2.333,2.333,0,0,0-1.33-.473l-0.01,0h-0.04l-0.07,0h-0.86a0.437,0.437,0,0,0-.46.418v6.1a0.444,0.444,0,0,1-.46.418h-1.61a0.444,0.444,0,0,1-.46-0.418v-8.1a0.413,0.413,0,0,1,.2-0.346,0.48,0.48,0,0,1,.26-0.071h3.38c0.25,0,.66.026,0.91,0.056,0,0,.46.059,1.02,0.186h0c0.17,0.039.34,0.083,0.51,0.135a3.434,3.434,0,0,1,2.05,1.855,2.809,2.809,0,0,1,.21.8c0.01,0.072.01,0.147,0.02,0.222v0.223a3.3,3.3,0,0,1-1.01,2.439A4.055,4.055,0,0,1,1787.6,879.794Z" transform="translate(-1783 -871)"/>
</svg>
